# This file uses centimeters as units for non-parametric coordinates.

mtllib bracoesquerdo.mtl
g default
v 15.743318 -1.694070 0.329600
v 15.718734 -3.147172 0.329600
v 15.743318 -1.694070 -0.481903
v 15.718734 -3.147172 -0.481903
v 14.019561 -1.694070 -0.481903
v 14.019561 -3.147172 -0.481903
v 14.019561 -1.694070 0.329600
v 14.019561 -3.147172 0.329600
v 16.381403 -1.827421 0.329600
v 16.381403 -3.013819 0.329600
v 16.381403 -3.013819 -0.481903
v 16.381403 -1.827421 -0.481903
v 16.745464 -2.207577 0.329600
v 16.745464 -2.633664 0.329600
v 16.745464 -2.633664 -0.481903
v 16.745464 -2.207577 -0.481903
v 14.369010 -1.489328 0.329600
v 15.758534 -1.489328 0.329600
v 15.758534 -1.489328 -0.481903
v 14.369010 -1.489328 -0.481903
v 14.908668 -1.136590 0.329600
v 15.851137 -1.118066 0.329600
v 15.851137 -1.118066 -0.481903
v 14.908668 -1.136590 -0.481903
v 15.372679 -0.968397 0.329600
v 15.646460 -0.968397 0.329600
v 15.646460 -0.968397 -0.481903
v 15.372679 -0.968397 -0.481903
v 13.768130 -1.422169 0.360314
v 13.768130 -3.419073 0.360314
v 13.768130 -1.422169 -0.512617
v 13.768130 -3.419073 -0.512617
v 5.498909 -1.422169 -0.512617
v 5.498909 -3.419073 -0.512617
v 5.498909 -1.422169 0.360314
v 5.498909 -3.419073 0.360314
v 4.236704 -3.125807 -0.770437
v 3.401851 -3.125807 0.064416
v 4.236704 -3.125807 0.899270
v 5.071558 -3.125807 0.064416
v 4.236704 -2.290954 -1.116245
v 3.056043 -2.290954 0.064416
v 4.236704 -2.290954 1.245077
v 5.417366 -2.290954 0.064416
v 4.236704 -1.456100 -0.770437
v 3.401851 -1.456100 0.064416
v 4.236704 -1.456100 0.899270
v 5.071558 -1.456100 0.064416
v 4.236704 -3.471615 0.064416
v 4.236704 -1.110293 0.064416
vt 0.025053 0.814453
vt 0.025053 0.776493
vt 0.097349 0.776493
vt 0.097349 0.814453
vt 0.608646 0.091212
vt 0.738102 0.093403
vt 0.738102 0.244781
vt 0.608646 0.244781
vt 0.692391 0.378229
vt 0.692391 0.248773
vt 0.764688 0.248773
vt 0.764688 0.378229
vt 0.874194 0.244781
vt 0.744738 0.244781
vt 0.744738 0.093402
vt 0.874194 0.091212
vt 0.998008 0.307809
vt 0.998008 0.459188
vt 0.925712 0.459188
vt 0.925712 0.307809
vt 0.043331 0.852312
vt 0.067722 0.852312
vt 0.067722 0.924608
vt 0.043331 0.924608
vt 0.756618 0.034366
vt 0.862314 0.034366
vt 0.925712 0.248773
vt 0.998008 0.248773
vt 0.620526 0.034366
vt 0.726222 0.034366
vt 0.074298 0.967666
vt 0.074298 0.895370
vt 0.131145 0.895370
vt 0.131145 0.967666
vt 0.790486 0.001931
vt 0.828446 0.001931
vt 0.025053 0.742625
vt 0.097349 0.742625
vt 0.654394 0.001932
vt 0.692354 0.001932
vt 0.097349 0.848321
vt 0.025053 0.848321
vt 0.892434 0.089857
vt 0.892434 0.213649
vt 0.138614 0.967666
vt 0.138614 0.895370
vt 0.156854 0.895370
vt 0.156854 0.967666
vt 0.590405 0.213649
vt 0.590405 0.089857
vt 0.764688 0.396470
vt 0.692391 0.396470
vt 0.925510 0.081607
vt 0.923860 0.165571
vt 0.189929 0.895370
vt 0.189929 0.967666
vt 0.558980 0.165571
vt 0.557330 0.081607
vt 0.764688 0.427895
vt 0.692391 0.427895
vt 0.938844 0.099841
vt 0.938844 0.124232
vt 0.203264 0.895370
vt 0.203264 0.967666
vt 0.543996 0.124233
vt 0.543996 0.099842
vt 0.001992 0.924608
vt 0.001992 0.852312
vt 0.608487 0.426676
vt 0.608487 0.248773
vt 0.686256 0.248773
vt 0.686256 0.426676
vt 0.001992 0.001932
vt 0.179895 0.001932
vt 0.179895 0.738633
vt 0.001992 0.738633
vt 0.524582 0.920528
vt 0.524582 0.742624
vt 0.602351 0.742624
vt 0.602351 0.920528
vt 0.365241 0.738633
vt 0.187337 0.738633
vt 0.187337 0.001931
vt 0.365241 0.001931
vt 0.450257 0.001931
vt 0.450257 0.738633
vt 0.372488 0.738633
vt 0.372488 0.001931
vt 0.458242 0.738633
vt 0.458242 0.001931
vt 0.536011 0.001931
vt 0.536011 0.738633
vt 0.770823 0.428334
vt 0.770823 0.353957
vt 0.845200 0.353957
vt 0.845200 0.459142
vt 0.770823 0.279580
vt 0.845200 0.248773
vt 0.444070 0.742624
vt 0.518447 0.742624
vt 0.518447 0.817001
vt 0.413262 0.817001
vt 0.770823 0.353957
vt 0.845200 0.353957
vt 0.919576 0.353957
vt 0.919576 0.428334
vt 0.919576 0.279580
vt 0.518447 0.891378
vt 0.444070 0.891378
vt 0.919576 0.353957
vt 0.332750 0.891378
vt 0.258373 0.817001
vt 0.332750 0.817001
vt 0.407127 0.817001
vt 0.332750 0.742624
vt 0.177861 0.891378
vt 0.103485 0.817002
vt 0.177861 0.817002
vt 0.177861 0.742625
vt 0.252238 0.817002
vn 1.000000 0.000000 0.000000
vn 1.000000 0.000000 0.000000
vn 1.000000 0.000000 0.000000
vn 1.000000 0.000000 0.000000
vn 0.000000 0.000000 -1.000000
vn 0.000000 0.000000 -1.000000
vn 0.000000 0.000000 -1.000000
vn 0.000000 0.000000 -1.000000
vn -1.000000 0.000000 0.000000
vn -1.000000 0.000000 0.000000
vn -1.000000 0.000000 0.000000
vn -1.000000 0.000000 0.000000
vn 0.000000 0.000000 1.000000
vn 0.000000 0.000000 1.000000
vn 0.000000 0.000000 1.000000
vn 0.000000 0.000000 1.000000
vn 0.000000 -1.000000 0.000000
vn 0.000000 -1.000000 0.000000
vn 0.000000 -1.000000 0.000000
vn 0.000000 -1.000000 0.000000
vn 0.000000 1.000000 0.000000
vn 0.000000 1.000000 0.000000
vn 0.000000 1.000000 0.000000
vn 0.000000 1.000000 0.000000
vn -0.000000 0.000000 1.000000
vn -0.000000 0.000000 1.000000
vn -0.000000 0.000000 1.000000
vn -0.000000 0.000000 1.000000
vn 0.197281 -0.980347 0.000000
vn 0.197281 -0.980347 0.000000
vn 0.197281 -0.980347 0.000000
vn 0.197281 -0.980347 0.000000
vn -0.000000 0.000000 -1.000000
vn -0.000000 0.000000 -1.000000
vn -0.000000 0.000000 -1.000000
vn -0.000000 0.000000 -1.000000
vn 0.204568 0.978852 0.000000
vn 0.204568 0.978852 0.000000
vn 0.204568 0.978852 0.000000
vn 0.204568 0.978852 0.000000
vn 0.000000 0.000000 1.000000
vn 0.000000 0.000000 1.000000
vn 0.000000 0.000000 1.000000
vn 0.000000 0.000000 1.000000
vn 0.722230 -0.691653 0.000000
vn 0.722230 -0.691653 0.000000
vn 0.722230 -0.691653 0.000000
vn 0.722230 -0.691653 0.000000
vn 0.000000 0.000000 -1.000000
vn 0.000000 0.000000 -1.000000
vn 0.000000 0.000000 -1.000000
vn 0.000000 0.000000 -1.000000
vn 0.722230 0.691653 0.000000
vn 0.722230 0.691653 0.000000
vn 0.722230 0.691653 0.000000
vn 0.722230 0.691653 0.000000
vn 0.000000 0.000000 1.000000
vn 0.000000 0.000000 1.000000
vn 0.000000 0.000000 1.000000
vn 0.000000 0.000000 1.000000
vn 0.997249 -0.074121 0.000000
vn 0.997249 -0.074121 0.000000
vn 0.997249 -0.074121 0.000000
vn 0.997249 -0.074121 0.000000
vn 0.000000 0.000000 -1.000000
vn 0.000000 0.000000 -1.000000
vn 0.000000 0.000000 -1.000000
vn 0.000000 0.000000 -1.000000
vn -0.505522 0.862814 0.000000
vn -0.505522 0.862814 0.000000
vn -0.505522 0.862814 0.000000
vn -0.505522 0.862814 0.000000
vn 0.000000 0.000000 1.000000
vn 0.000000 0.000000 1.000000
vn 0.000000 0.000000 1.000000
vn 0.000000 0.000000 1.000000
vn 0.970274 -0.242010 0.000000
vn 0.970274 -0.242010 0.000000
vn 0.970274 -0.242010 0.000000
vn 0.970274 -0.242010 0.000000
vn 0.000000 0.000000 -1.000000
vn 0.000000 0.000000 -1.000000
vn 0.000000 0.000000 -1.000000
vn 0.000000 0.000000 -1.000000
vn -0.547124 0.837052 0.000000
vn -0.547124 0.837052 0.000000
vn -0.547124 0.837052 0.000000
vn -0.547124 0.837052 0.000000
vn 0.000000 0.000000 1.000000
vn 0.000000 0.000000 1.000000
vn 0.000000 0.000000 1.000000
vn 0.000000 0.000000 1.000000
vn 0.590269 0.807207 0.000000
vn 0.590269 0.807207 0.000000
vn 0.590269 0.807207 0.000000
vn 0.590269 0.807207 0.000000
vn 0.000000 0.000000 -1.000000
vn 0.000000 0.000000 -1.000000
vn 0.000000 0.000000 -1.000000
vn 0.000000 0.000000 -1.000000
vn -0.340780 0.940143 0.000000
vn -0.340780 0.940143 0.000000
vn -0.340780 0.940143 0.000000
vn -0.340780 0.940143 0.000000
vn 1.000000 0.000000 0.000000
vn 1.000000 0.000000 0.000000
vn 1.000000 0.000000 0.000000
vn 1.000000 0.000000 0.000000
vn 0.000000 0.000000 -1.000000
vn 0.000000 0.000000 -1.000000
vn 0.000000 0.000000 -1.000000
vn 0.000000 0.000000 -1.000000
vn -1.000000 0.000000 0.000000
vn -1.000000 0.000000 0.000000
vn -1.000000 0.000000 0.000000
vn -1.000000 0.000000 0.000000
vn 0.000000 0.000000 1.000000
vn 0.000000 0.000000 1.000000
vn 0.000000 0.000000 1.000000
vn 0.000000 0.000000 1.000000
vn 0.000000 -1.000000 0.000000
vn 0.000000 -1.000000 0.000000
vn 0.000000 -1.000000 0.000000
vn 0.000000 -1.000000 0.000000
vn 0.000000 1.000000 0.000000
vn 0.000000 1.000000 0.000000
vn 0.000000 1.000000 0.000000
vn 0.000000 1.000000 0.000000
vn -0.678598 -0.281085 -0.678598
vn -0.678598 -0.281085 -0.678598
vn -0.678598 -0.281085 -0.678598
vn -0.678598 -0.281085 -0.678598
vn -0.678598 -0.281085 0.678598
vn -0.678598 -0.281085 0.678598
vn -0.678598 -0.281085 0.678598
vn -0.678598 -0.281085 0.678598
vn 0.678598 -0.281085 0.678598
vn 0.678598 -0.281085 0.678598
vn 0.678598 -0.281085 0.678598
vn 0.678598 -0.281085 0.678598
vn 0.678598 -0.281085 -0.678598
vn 0.678598 -0.281085 -0.678598
vn 0.678598 -0.281085 -0.678598
vn 0.678598 -0.281085 -0.678598
vn -0.678598 0.281085 -0.678598
vn -0.678598 0.281085 -0.678598
vn -0.678598 0.281085 -0.678598
vn -0.678598 0.281085 -0.678598
vn -0.678598 0.281085 0.678598
vn -0.678598 0.281085 0.678598
vn -0.678598 0.281085 0.678598
vn -0.678598 0.281085 0.678598
vn 0.678598 0.281085 0.678598
vn 0.678598 0.281085 0.678598
vn 0.678598 0.281085 0.678598
vn 0.678598 0.281085 0.678598
vn 0.678598 0.281085 -0.678598
vn 0.678598 0.281085 -0.678598
vn 0.678598 0.281085 -0.678598
vn 0.678598 0.281085 -0.678598
vn -0.357407 -0.862856 -0.357406
vn -0.357407 -0.862856 -0.357406
vn -0.357407 -0.862856 -0.357406
vn -0.357407 -0.862856 0.357406
vn -0.357407 -0.862856 0.357406
vn -0.357407 -0.862856 0.357406
vn 0.357407 -0.862856 0.357407
vn 0.357407 -0.862856 0.357407
vn 0.357407 -0.862856 0.357407
vn 0.357407 -0.862856 -0.357407
vn 0.357407 -0.862856 -0.357407
vn 0.357407 -0.862856 -0.357407
vn -0.357407 0.862856 -0.357407
vn -0.357407 0.862856 -0.357407
vn -0.357407 0.862856 -0.357407
vn -0.357407 0.862856 0.357407
vn -0.357407 0.862856 0.357407
vn -0.357407 0.862856 0.357407
vn 0.357407 0.862856 0.357407
vn 0.357407 0.862856 0.357407
vn 0.357407 0.862856 0.357407
vn 0.357407 0.862856 -0.357407
vn 0.357407 0.862856 -0.357407
vn 0.357407 0.862856 -0.357407
s off
g braco_esquerdo
usemtl lambert12SG
f 13/1/1 14/2/2 15/3/3 16/4/4
f 3/5/5 4/6/6 6/7/7 5/8/8
f 5/9/9 6/10/10 8/11/11 7/12/12
f 7/13/13 8/14/14 2/15/15 1/16/16
f 2/17/17 8/18/18 6/19/19 4/20/20
f 25/21/21 26/22/22 27/23/23 28/24/24
f 1/16/25 2/15/26 10/25/27 9/26/28
f 2/17/29 4/20/30 11/27/31 10/28/32
f 4/6/33 3/5/34 12/29/35 11/30/36
f 3/31/37 1/32/38 9/33/39 12/34/40
f 9/26/41 10/25/42 14/35/43 13/36/44
f 10/37/45 11/38/46 15/3/47 14/2/48
f 11/30/49 12/29/50 16/39/51 15/40/52
f 12/41/53 9/42/54 13/1/55 16/4/56
f 7/13/57 1/16/58 18/43/59 17/44/60
f 1/45/61 3/46/62 19/47/63 18/48/64
f 3/5/65 5/8/66 20/49/67 19/50/68
f 5/9/69 7/12/70 17/51/71 20/52/72
f 17/44/73 18/43/74 22/53/75 21/54/76
f 18/48/77 19/47/78 23/55/79 22/56/80
f 19/50/81 20/49/82 24/57/83 23/58/84
f 20/52/85 17/51/86 21/59/87 24/60/88
f 21/54/89 22/53/90 26/61/91 25/62/92
f 22/56/93 23/55/94 27/63/95 26/64/96
f 23/58/97 24/57/98 28/65/99 27/66/100
f 24/67/101 21/68/102 25/21/103 28/24/104
f 29/69/105 30/70/106 32/71/107 31/72/108
f 31/73/109 32/74/110 34/75/111 33/76/112
f 33/77/113 34/78/114 36/79/115 35/80/116
f 35/81/117 36/82/118 30/83/119 29/84/120
f 30/85/121 36/86/122 34/87/123 32/88/124
f 35/89/125 29/90/126 31/91/127 33/92/128
f 37/93/129 38/94/130 42/95/131 41/96/132
f 38/94/133 39/97/134 43/98/135 42/95/136
f 39/99/137 40/100/138 44/101/139 43/102/140
f 40/103/141 37/93/142 41/96/143 44/104/144
f 41/96/145 42/95/146 46/105/147 45/106/148
f 42/95/149 43/98/150 47/107/151 46/105/152
f 43/102/153 44/101/154 48/108/155 47/109/156
f 44/104/157 41/96/158 45/106/159 48/110/160
f 38/111/161 37/112/162 49/113/163
f 39/114/164 38/111/165 49/113/166
f 40/115/167 39/114/168 49/113/169
f 37/112/170 40/115/171 49/113/172
f 45/116/173 46/117/174 50/118/175
f 46/117/176 47/119/177 50/118/178
f 47/119/179 48/120/180 50/118/181
f 48/120/182 45/116/183 50/118/184
