# Blender v2.79 (sub 0) OBJ File: ''
# www.blender.org
mtllib cabelo.mtl
o cabelo
v -0.844561 5.263626 -0.967672
v -0.422281 5.263626 -0.967672
v -0.422281 5.289033 1.194402
v -0.844561 5.289033 1.194402
v -0.422281 5.994703 1.218308
v -0.844561 5.994703 1.218308
v -0.735437 7.752758 0.512250
v -0.371236 7.752758 0.512250
v -0.371236 7.768923 0.386715
v -0.735437 7.768923 0.386715
v -0.844561 -7.084774 -2.185712
v -0.422281 -7.084774 -2.185712
v -0.422281 -7.235355 -1.412326
v -0.844561 -7.235355 -1.412326
v 0.844561 5.263626 -0.967672
v 0.844561 6.388227 -1.029875
v 0.844561 5.994703 1.218308
v 0.844561 5.289033 1.194402
v -0.844561 6.388227 -1.029875
v -0.735435 7.102427 -2.882886
v -0.371235 7.102427 -2.882886
v -0.371235 7.034837 -2.947402
v -0.735435 7.034837 -2.947402
v 0.844561 3.903618 -2.100395
v 0.844561 5.171231 -2.538696
v -0.844561 3.903618 -2.100395
v -0.422281 3.903618 -2.100395
v -0.844561 5.171231 -2.538696
v -0.735429 4.469391 -4.374520
v -0.371227 4.469391 -4.374520
v -0.371227 4.351906 -4.407856
v -0.735429 4.351906 -4.407856
v 0.844561 1.964365 -1.890460
v 0.844561 3.167964 -2.963241
v -0.844561 1.964365 -1.890460
v -0.422281 1.964365 -1.890460
v -0.844561 3.167964 -2.963241
v -0.735429 1.863189 -3.735641
v -0.371228 1.863189 -3.735641
v -0.371228 1.770889 -3.704590
v -0.735429 1.770889 -3.704590
v 0.844561 0.582135 -1.388419
v 0.844561 1.276051 -2.378464
v -0.844561 0.582135 -1.388419
v -0.422281 0.582135 -1.388419
v -0.844561 1.276051 -2.378464
v -0.735429 0.374641 -3.463855
v -0.371228 0.374641 -3.463855
v -0.371228 0.284193 -3.469936
v -0.735429 0.284193 -3.469936
v 0.844561 -0.876172 -1.603579
v 0.844561 -0.390899 -2.257432
v -0.844561 -0.876172 -1.603579
v -0.422281 -0.876172 -1.603579
v -0.844561 -0.390899 -2.257432
v -0.735429 -1.159983 -3.420944
v -0.371226 -1.159983 -3.420944
v -0.371226 -1.253312 -3.423552
v -0.735429 -1.253312 -3.423552
v 0.844561 -2.179088 -1.597602
v 0.844561 -1.956788 -2.376964
v -0.844561 -2.179088 -1.597602
v -0.422281 -2.179088 -1.597602
v -0.844561 -1.956788 -2.376964
v -0.735429 -6.428444 -3.357207
v -0.371226 -6.428444 -3.357207
v -0.371226 -6.532491 -3.345316
v -0.735429 -6.532491 -3.345316
v 0.844561 -5.411306 -2.376965
v 0.844561 -5.514072 -1.651394
v 0.844561 -7.235355 -1.412326
v 0.844561 -7.084774 -2.185712
v -0.422281 -5.514072 -1.651394
v -0.844561 -5.514072 -1.651394
v -0.844561 -5.411306 -2.376965
v -0.735438 -4.645826 -3.503604
v -0.371230 -4.645826 -3.503604
v -0.371230 -4.713380 -3.494606
v -0.735438 -4.713380 -3.494606
v -0.844561 -3.936231 -1.663347
v -0.844561 -3.690025 -2.424779
v -0.422281 -3.936231 -1.663347
v 0.844561 -3.690025 -2.424779
v 0.844561 -3.936231 -1.663347
v -0.735430 -2.948231 -3.473845
v -0.371226 -2.948231 -3.473845
v -0.371226 -3.028247 -3.464177
v -0.735430 -3.028247 -3.464177
v -0.422281 5.994703 1.218308
v -0.844561 5.994703 1.218308
v 0.844561 6.388227 -1.029875
v 0.844561 5.994703 1.218308
v -0.422281 6.388227 -1.029875
v -0.844561 6.388227 -1.029875
v -0.422281 6.388227 -1.029875
v 0.721365 7.768923 0.386715
v 0.721365 7.752758 0.512250
v 0.721364 7.034837 -2.947402
v 0.721364 7.102427 -2.882886
v -0.422281 5.171231 -2.538696
v 0.721379 4.351906 -4.407856
v 0.721379 4.469391 -4.374520
v -0.422281 3.167964 -2.963241
v 0.721374 1.770889 -3.704590
v 0.721374 1.863189 -3.735641
v -0.422281 1.276051 -2.378464
v 0.721374 0.284193 -3.469936
v 0.721374 0.374641 -3.463855
v -0.422281 -0.390899 -2.257432
v 0.721385 -1.253312 -3.423552
v 0.721385 -1.159983 -3.420944
v -0.422281 -1.956788 -2.376964
v 0.721386 -3.028247 -3.464177
v 0.721386 -2.948231 -3.473845
v -0.422281 -3.690025 -2.424779
v 0.721394 -4.713380 -3.494606
v 0.721394 -4.645826 -3.503604
v -0.422281 -5.411306 -2.376965
v 0.721385 -6.532491 -3.345316
v 0.721385 -6.428444 -3.357207
v 0.357165 7.752758 0.512250
v 0.357165 7.768923 0.386715
v 0.422280 6.388227 -1.029875
v 0.422280 6.388227 -1.029875
v 0.357164 7.102427 -2.882886
v 0.357164 7.034837 -2.947402
v 0.422280 5.171231 -2.538696
v 0.357177 4.469391 -4.374520
v 0.357177 4.351906 -4.407856
v 0.422280 3.167964 -2.963241
v 0.357173 1.863189 -3.735641
v 0.357173 1.770889 -3.704590
v 0.422280 1.276051 -2.378464
v 0.357173 0.374641 -3.463855
v 0.357173 0.284193 -3.469936
v 0.422280 -0.390899 -2.257432
v 0.357181 -1.159983 -3.420944
v 0.357181 -1.253312 -3.423552
v 0.422280 -1.956788 -2.376964
v 0.357182 -2.948231 -3.473845
v 0.357182 -3.028247 -3.464177
v 0.422280 -3.690025 -2.424779
v 0.357186 -4.645826 -3.503604
v 0.357186 -4.713380 -3.494606
v 0.422280 -5.411306 -2.376965
v 0.357181 -6.428444 -3.357207
v 0.357181 -6.532491 -3.345316
v 0.422280 -7.084774 -2.185712
v 0.422280 -7.235355 -1.412326
v 0.422280 -5.514072 -1.651394
v 0.422280 -3.936231 -1.663347
v 0.422280 -2.179088 -1.597602
v 0.422280 -0.876172 -1.603579
v 0.422280 0.582135 -1.388419
v 0.422280 1.964365 -1.890460
v 0.422280 3.903618 -2.100395
v 0.422280 5.263626 -0.967672
v 0.422280 5.289033 1.194402
v 0.422280 5.994703 1.218308
v 0.422280 5.994703 1.218308
vt 0.122280 0.690596
vt 0.001848 0.730873
vt 0.003165 0.691996
vt 0.508017 0.690596
vt 0.628449 0.730873
vt 0.504590 0.752553
vt 0.208832 0.685506
vt 0.125707 0.752553
vt 0.421465 0.685506
vt 0.445612 0.615669
vt 0.630752 0.919463
vt 0.728499 0.873648
vt 0.727608 0.880564
vt 0.527313 0.795604
vt 0.625059 0.841419
vt 0.548993 0.919463
vt 0.227795 0.791901
vt 0.402502 0.791901
vt 0.398948 0.788177
vt 0.627132 0.691996
vt 0.184685 0.615669
vt 0.652432 0.795604
vt 0.624169 0.834503
vt 0.231349 0.788177
vt 0.856207 0.064397
vt 0.832942 0.183512
vt 0.832942 0.064397
vt 0.001848 0.965958
vt 0.040726 0.989222
vt 0.001848 0.989222
vt 0.047238 0.967430
vt 0.054154 0.987495
vt 0.047238 0.987495
vt 0.451826 0.859490
vt 0.428561 0.902098
vt 0.428561 0.859490
vt 0.355887 0.897692
vt 0.335822 0.901246
vt 0.335822 0.897692
vt 0.856207 0.001992
vt 0.760269 0.344053
vt 0.740204 0.350526
vt 0.740204 0.344053
vt 0.232222 0.575140
vt 0.634946 0.615669
vt 0.658211 0.508830
vt 0.658211 0.615669
vt 0.398076 0.575140
vt 0.457178 0.508830
vt 0.760268 0.487636
vt 0.740204 0.492721
vt 0.740204 0.487636
vt 0.173119 0.508830
vt 0.200005 0.470909
vt 0.634946 0.508830
vt 0.658211 0.432680
vt 0.430293 0.470909
vt 0.484837 0.432680
vt 0.189124 0.967430
vt 0.194107 0.987494
vt 0.189124 0.987494
vt 0.145460 0.432680
vt 0.193337 0.379072
vt 0.634946 0.432680
vt 0.658211 0.352337
vt 0.436961 0.379072
vt 0.472983 0.352337
vt 0.760482 0.044363
vt 0.740417 0.049505
vt 0.740417 0.044363
vt 0.157314 0.352337
vt 0.199922 0.292803
vt 0.634946 0.352337
vt 0.658211 0.280556
vt 0.430375 0.292803
vt 0.473312 0.280556
vt 0.760482 0.334618
vt 0.740417 0.340350
vt 0.740417 0.334618
vt 0.159948 0.096822
vt 0.189385 0.010288
vt 0.199922 0.102484
vt 0.634946 0.096822
vt 0.658211 0.001992
vt 0.658211 0.096822
vt 0.470349 0.096822
vt 0.440912 0.010288
vt 0.483520 0.001992
vt 0.760481 0.236408
vt 0.740416 0.240130
vt 0.740416 0.236408
vt 0.469690 0.183750
vt 0.430375 0.102484
vt 0.634946 0.183750
vt 0.658211 0.183750
vt 0.160607 0.183750
vt 0.202556 0.197314
vt 0.760482 0.142883
vt 0.740417 0.147291
vt 0.740417 0.142883
vt 0.427741 0.197314
vt 0.634946 0.280556
vt 0.156985 0.280556
vt 0.056822 0.795604
vt 0.039569 0.892460
vt 0.033557 0.795604
vt 0.132198 0.970242
vt 0.054154 0.967430
vt 0.353075 0.795604
vt 0.329810 0.795604
vt 0.254324 0.898275
vt 0.237071 0.795604
vt 0.257136 0.795604
vt 0.155573 0.795604
vt 0.138321 0.896745
vt 0.132308 0.795604
vt 0.309973 0.646839
vt 0.757456 0.415753
vt 0.760269 0.350526
vt 0.320324 0.646839
vt 0.318488 0.640367
vt 0.734191 0.415753
vt 0.274775 0.503256
vt 0.274006 0.971773
vt 0.200946 0.989025
vt 0.200946 0.968960
vt 0.355522 0.503256
vt 0.357233 0.498171
vt 0.139463 0.970242
vt 0.139463 0.993507
vt 0.259802 0.421248
vt 0.347313 0.974743
vt 0.280513 0.991996
vt 0.280513 0.971931
vt 0.370495 0.421248
vt 0.370160 0.416265
vt 0.757669 0.001992
vt 0.734404 0.001992
vt 0.257438 0.336701
vt 0.757669 0.088261
vt 0.760482 0.049505
vt 0.372859 0.336701
vt 0.372716 0.331560
vt 0.734404 0.088261
vt 0.260352 0.238182
vt 0.757669 0.183750
vt 0.760482 0.147291
vt 0.369945 0.238182
vt 0.370478 0.233773
vt 0.734404 0.183750
vt 0.261992 0.144656
vt 0.757669 0.278581
vt 0.760481 0.240130
vt 0.368305 0.144656
vt 0.368801 0.140935
vt 0.734404 0.278581
vt 0.253926 0.046447
vt 0.434574 0.795604
vt 0.454639 0.795604
vt 0.376371 0.046447
vt 0.377026 0.040715
vt 0.047238 0.907235
vt 0.054154 0.927300
vt 0.047238 0.927300
vt 0.132198 0.923713
vt 0.054154 0.907235
vt 0.132198 0.900448
vt 0.399604 0.795604
vt 0.416082 0.897692
vt 0.396017 0.897692
vt 0.416082 0.901246
vt 0.396017 0.901246
vt 0.300853 0.898275
vt 0.317331 0.795604
vt 0.324118 0.898275
vt 0.202102 0.795604
vt 0.218580 0.896745
vt 0.198515 0.896745
vt 0.800398 0.344053
vt 0.820463 0.350526
vt 0.800398 0.350526
vt 0.803985 0.415753
vt 0.827250 0.415753
vt 0.820463 0.487636
vt 0.800398 0.487636
vt 0.820463 0.492721
vt 0.800398 0.492721
vt 0.274006 0.925244
vt 0.200946 0.908766
vt 0.274006 0.901979
vt 0.139463 0.923713
vt 0.189124 0.907235
vt 0.189124 0.927300
vt 0.194107 0.907235
vt 0.194107 0.927300
vt 0.347313 0.928214
vt 0.280513 0.911736
vt 0.347313 0.904949
vt 0.804198 0.001992
vt 0.820677 0.044363
vt 0.800612 0.044363
vt 0.820677 0.049505
vt 0.800612 0.049505
vt 0.804198 0.088261
vt 0.827463 0.088261
vt 0.820677 0.142883
vt 0.800612 0.142883
vt 0.820677 0.147291
vt 0.800612 0.147291
vt 0.804198 0.183750
vt 0.827463 0.183750
vt 0.820677 0.236408
vt 0.800612 0.236408
vt 0.820677 0.240130
vt 0.800612 0.240130
vt 0.804198 0.278581
vt 0.827463 0.278581
vt 0.820677 0.334618
vt 0.800612 0.334618
vt 0.820677 0.340350
vt 0.800612 0.340350
vt 0.498355 0.859490
vt 0.514834 0.795604
vt 0.521620 0.859490
vt 0.521620 0.902098
vt 0.498355 0.902098
vt 0.704740 0.096822
vt 0.728004 0.001992
vt 0.728004 0.096822
vt 0.704740 0.183750
vt 0.728004 0.183750
vt 0.704740 0.280556
vt 0.728004 0.280556
vt 0.704740 0.352337
vt 0.728004 0.352337
vt 0.704740 0.432680
vt 0.728004 0.432680
vt 0.704740 0.508830
vt 0.728004 0.508830
vt 0.704740 0.615669
vt 0.728004 0.615669
vt 0.902736 0.064397
vt 0.926001 0.001992
vt 0.926001 0.064397
vt 0.926001 0.183512
vt 0.902736 0.183512
vt 0.001848 0.919429
vt 0.040726 0.896164
vt 0.040726 0.919429
vt 0.103351 0.795604
vt 0.119828 0.892460
vt 0.099764 0.892460
vt 0.355887 0.901246
vt 0.297266 0.795604
vt 0.760268 0.492721
vt 0.200946 0.928831
vt 0.194107 0.967430
vt 0.280513 0.931801
vt 0.760482 0.340350
vt 0.494769 0.795604
vt 0.451826 0.902098
vt 0.704740 0.001992
vt 0.902736 0.001992
vt 0.856207 0.183512
vt 0.040726 0.965958
vt 0.832942 0.001992
vt 0.146777 0.001992
vt 0.634946 0.001992
vt 0.059634 0.892460
vt 0.132198 0.993507
vt 0.231059 0.898275
vt 0.158385 0.896745
vt 0.311810 0.640367
vt 0.273065 0.498171
vt 0.274006 0.995037
vt 0.260137 0.416265
vt 0.347313 0.998008
vt 0.257581 0.331560
vt 0.259820 0.233773
vt 0.261496 0.140935
vt 0.253271 0.040715
vt 0.422869 0.795604
vt 0.225367 0.795604
vt 0.820463 0.344053
vt 0.139463 0.900448
vt 0.827463 0.001992
vt 0.001848 0.896164
vt 0.126616 0.795604
vt 1.000000 0.000000
vt 0.000000 1.000000
vt 0.000000 0.000000
vt 1.000000 0.000000
vt 0.000000 1.000000
vt 0.000000 0.000000
vt 1.000000 0.000000
vt 0.000000 1.000000
vt 0.000000 0.000000
vt 1.000000 0.000000
vt 0.000000 1.000000
vt 0.000000 0.000000
vt 1.000000 0.000000
vt 0.000000 1.000000
vt 0.000000 0.000000
vt 1.000000 0.000000
vt 0.000000 0.000000
vt 1.000000 0.000000
vt 0.000000 1.000000
vt 0.000000 0.000000
vt 1.000000 0.000000
vt 0.000000 1.000000
vt 1.000000 1.000000
vt 1.000000 1.000000
vt 1.000000 1.000000
vt 1.000000 1.000000
vt 1.000000 1.000000
vt 1.000000 1.000000
vt 1.000000 1.000000
vt 1.000000 1.000000
vn 1.0000 0.0000 0.0000
vn -1.0000 0.0000 0.0000
vn 0.9972 0.0737 0.0095
vn -0.9977 0.0668 0.0117
vn 0.9974 0.0556 -0.0449
vn -0.9976 0.0475 -0.0498
vn 0.9971 0.0754 0.0132
vn -0.9978 0.0653 0.0084
vn 0.9970 0.0536 -0.0561
vn -0.9980 0.0493 -0.0398
vn 0.0000 -0.9999 0.0118
vn 0.0000 -0.0339 0.9994
vn 0.0000 0.9918 0.1277
vn 0.0123 -0.9423 -0.3346
vn 0.0000 -0.9816 -0.1911
vn -0.0000 -0.9424 -0.3345
vn 0.0000 0.6905 -0.7234
vn 0.0000 -0.6400 0.7684
vn 0.0000 0.2730 -0.9620
vn 0.9997 0.0055 -0.0257
vn 0.9988 0.0104 -0.0489
vn 0.0000 0.1076 0.9942
vn -0.9997 0.0049 -0.0228
vn 0.0000 -0.3189 -0.9478
vn 0.9996 -0.0087 -0.0281
vn 0.9974 -0.0213 -0.0690
vn 0.0000 0.3414 0.9399
vn -0.9997 -0.0078 -0.0250
vn 0.0000 0.0671 -0.9977
vn 0.9996 -0.0017 -0.0268
vn 0.9988 -0.0036 -0.0486
vn 0.0000 -0.1460 0.9893
vn -0.9997 -0.0015 -0.0238
vn 0.0000 0.0279 -0.9996
vn 0.9993 0.0019 -0.0367
vn 0.9988 0.0038 -0.0492
vn 0.0000 0.0046 1.0000
vn 0.0000 -0.0195 0.9998
vn -0.9995 0.0017 -0.0325
vn 0.0000 -0.1135 -0.9935
vn 0.9994 -0.0038 -0.0334
vn 0.9992 -0.0044 -0.0387
vn 0.0000 0.1376 0.9905
vn -0.9996 -0.0034 -0.0296
vn 0.0000 -0.1320 -0.9912
vn -0.9995 -0.0010 -0.0311
vn 0.0000 -0.0161 0.9999
vn 0.0000 0.0076 1.0000
vn 0.9994 -0.0011 -0.0351
vn 0.9994 -0.0001 -0.0360
vn 0.0000 -0.1200 -0.9928
vn -0.9995 -0.0001 -0.0319
vn 0.0000 0.3727 0.9280
vn 0.0000 0.7161 -0.6980
vn 0.0000 0.9331 0.3596
vn 0.0000 -0.2142 -0.9768
vn 0.0000 0.9341 -0.3571
vn 0.9973 0.0175 -0.0709
vn 0.0000 -0.7734 -0.6339
vn -0.9979 0.0155 -0.0629
vn -0.9980 0.0174 -0.0612
vn 0.0000 0.5094 -0.8605
vn 0.9939 -0.0334 -0.1047
vn 0.0000 -0.9369 -0.3496
vn -0.9952 -0.0296 -0.0929
vn -0.9951 -0.0315 -0.0936
vn 0.0000 0.7693 -0.6389
vn 0.9948 -0.0011 -0.1023
vn 0.0000 -0.8737 -0.4865
vn -0.9959 -0.0010 -0.0907
vn -0.9962 0.0058 -0.0864
vn 0.0000 0.8342 -0.5514
vn 0.9936 0.0062 -0.1125
vn 0.0000 -0.8299 -0.5579
vn -0.9950 0.0055 -0.0998
vn -0.9948 0.0028 -0.1018
vn 0.0000 0.7419 -0.6706
vn 0.9928 -0.0040 -0.1194
vn 0.0000 -0.8435 -0.5371
vn -0.9944 -0.0035 -0.1059
vn -0.9935 -0.0137 -0.1130
vn 0.0000 0.7485 -0.6631
vn 0.9934 -0.0081 -0.1141
vn 0.0000 -0.8482 -0.5297
vn -0.9948 -0.0072 -0.1012
vn -0.9943 -0.0141 -0.1059
vn 0.0000 0.6939 -0.7200
vn 0.9937 -0.0128 -0.1116
vn 0.0000 -0.9028 -0.4300
vn -0.9950 -0.0113 -0.0990
vn 0.0071 -0.9417 -0.3364
vn 0.0000 -0.9425 -0.3341
vn 0.0003 -0.0161 0.9999
vn 0.0007 -0.0194 0.9998
vn -0.9990 0.0092 -0.0433
vn -0.9979 -0.0189 -0.0612
vn -0.9991 -0.0032 -0.0431
vn -0.9990 0.0033 -0.0436
vn -0.9994 -0.0039 -0.0342
vn 0.9974 0.0196 -0.0690
vn 0.9938 -0.0355 -0.1056
vn 0.9952 0.0066 -0.0975
vn 0.9934 0.0032 -0.1148
vn 0.9917 -0.0154 -0.1273
vn 0.9927 -0.0159 -0.1193
vn 0.0000 0.0000 1.0000
usemtl lambert11SG
s off
f 15/1/1 17/2/1 18/3/1
f 1/4/2 6/5/2 19/6/2
f 15/1/1 25/7/1 16/8/1
f 1/4/2 28/9/2 26/10/2
f 92/11/3 96/12/3 97/13/3
f 90/14/4 10/15/4 94/16/4
f 25/7/5 99/17/5 16/8/5
f 28/9/6 20/18/6 23/19/6
f 15/1/1 16/8/1 17/2/1
f 1/4/2 4/20/2 6/5/2
f 15/1/1 24/21/1 25/7/1
f 1/4/2 19/6/2 28/9/2
f 92/11/7 91/22/7 96/12/7
f 90/14/8 7/23/8 10/15/8
f 25/7/9 98/24/9 99/17/9
f 28/9/10 19/6/10 20/18/10
s 1
f 2/25/11 4/26/11 1/27/11
f 3/28/12 6/29/12 4/30/12
f 8/31/13 10/32/13 7/33/13
f 12/34/14 14/35/15 11/36/16
f 21/37/17 23/38/17 20/39/17
f 1/27/18 27/40/18 2/25/18
f 30/41/19 32/42/19 29/43/19
f 24/21/1 34/44/20 25/7/21
f 26/45/22 36/46/22 27/47/22
f 26/10/2 37/48/23 35/49/2
f 39/50/24 41/51/24 38/52/24
f 33/53/1 43/54/25 34/44/26
f 35/55/27 45/56/27 36/46/27
f 35/49/2 46/57/28 44/58/2
f 48/59/29 50/60/29 47/61/29
f 42/62/1 52/63/30 43/54/31
f 44/64/32 54/65/32 45/56/32
f 44/58/2 55/66/33 53/67/2
f 57/68/34 59/69/34 56/70/34
f 51/71/1 61/72/35 52/63/36
f 53/73/37 63/74/38 54/65/37
f 53/67/2 64/75/39 62/76/2
f 66/77/40 68/78/40 65/79/40
f 70/80/1 72/81/41 69/82/42
f 74/83/43 13/84/43 73/85/43
f 74/86/2 11/87/44 14/88/2
f 77/89/45 79/90/45 76/91/45
f 80/92/2 75/93/46 74/86/2
f 80/94/47 73/85/48 82/95/47
f 84/96/1 69/82/49 83/97/50
f 86/98/51 88/99/51 85/100/51
f 62/76/2 81/101/52 80/92/2
f 62/102/38 82/95/47 63/74/38
f 60/103/1 83/97/50 61/72/35
f 89/104/53 7/105/53 90/106/53
f 95/107/54 10/32/54 9/108/54
f 93/109/55 20/39/55 19/110/55
f 100/111/56 23/112/56 22/113/56
f 100/114/57 29/115/57 28/116/57
f 34/44/20 102/117/58 25/7/21
f 103/118/59 32/42/59 31/119/59
f 37/48/23 29/120/60 32/121/61
f 103/118/62 38/52/62 37/122/62
f 43/54/25 105/123/63 34/44/26
f 106/124/64 41/125/64 40/126/64
f 46/57/28 38/127/65 41/128/66
f 106/129/67 47/61/67 46/130/67
f 52/63/30 108/131/68 43/54/31
f 109/132/69 50/133/69 49/134/69
f 55/66/33 47/135/70 50/136/71
f 109/137/72 56/70/72 55/138/72
f 61/72/35 111/139/73 52/63/36
f 112/140/74 59/69/74 58/141/74
f 64/75/39 56/142/75 59/143/76
f 112/140/77 85/100/77 64/144/77
f 83/97/50 114/145/78 61/72/35
f 115/146/79 88/99/79 87/147/79
f 81/101/52 85/148/80 88/149/81
f 115/146/82 76/91/82 81/150/82
f 69/82/49 117/151/83 83/97/50
f 118/152/84 79/90/84 78/153/84
f 75/93/46 76/154/85 79/155/86
f 118/152/87 65/79/87 75/156/87
f 72/81/41 120/157/88 69/82/42
f 12/34/14 68/158/89 67/159/89
f 11/87/44 65/160/90 68/161/90
f 97/162/13 122/163/13 121/164/13
f 123/165/54 96/166/54 91/167/54
f 124/168/55 99/169/55 125/170/55
f 125/170/17 98/171/17 126/172/17
f 127/173/56 98/174/56 25/175/56
f 127/176/57 102/177/57 128/178/57
f 128/179/19 101/180/19 129/181/19
f 130/182/59 101/180/59 34/183/59
f 130/182/62 105/184/62 131/185/62
f 131/185/24 104/186/24 132/187/24
f 133/188/64 104/189/64 43/190/64
f 133/191/67 108/192/67 134/193/67
f 134/193/29 107/194/29 135/195/29
f 136/196/69 107/197/69 52/198/69
f 136/199/72 111/200/72 137/201/72
f 137/201/34 110/202/34 138/203/34
f 139/204/74 110/202/74 61/205/74
f 139/204/77 114/206/77 140/207/77
f 140/207/51 113/208/51 141/209/51
f 142/210/79 113/208/79 83/211/79
f 142/210/82 117/212/82 143/213/82
f 143/213/45 116/214/45 144/215/45
f 145/216/84 116/214/84 69/217/84
f 145/216/87 120/218/87 146/219/87
f 146/219/40 119/220/40 147/221/40
f 148/222/91 119/223/89 72/224/92
f 148/222/91 71/225/15 149/226/15
f 150/227/43 71/228/43 70/229/43
f 151/230/93 70/229/48 84/231/47
f 152/232/94 84/231/47 60/233/38
f 153/234/37 60/233/38 51/235/37
f 154/236/32 51/235/32 42/237/32
f 155/238/27 42/237/27 33/239/27
f 156/240/22 33/239/22 24/241/22
f 157/242/18 24/243/18 15/244/18
f 157/242/11 18/245/11 158/246/11
f 158/247/12 17/248/12 159/249/12
f 160/250/53 97/251/53 121/252/53
f 9/108/13 121/164/13 122/163/13
f 95/107/54 122/163/54 123/165/54
f 125/170/55 93/109/55 124/168/55
f 22/253/17 125/170/17 126/172/17
f 100/111/56 126/254/56 127/173/56
f 128/178/57 100/114/57 127/176/57
f 31/119/19 128/179/19 129/181/19
f 103/118/59 129/181/59 130/182/59
f 131/185/62 103/118/62 130/182/62
f 40/255/24 131/185/24 132/187/24
f 106/124/64 132/256/64 133/188/64
f 134/193/67 106/129/67 133/191/67
f 49/257/29 134/193/29 135/195/29
f 109/132/69 135/258/69 136/196/69
f 137/201/72 109/137/72 136/199/72
f 57/68/34 138/203/34 58/141/34
f 112/140/74 138/203/74 139/204/74
f 112/140/77 140/207/77 86/98/77
f 86/98/51 141/209/51 87/147/51
f 115/146/79 141/209/79 142/210/79
f 115/146/82 143/213/82 77/89/82
f 78/153/45 143/213/45 144/215/45
f 118/152/84 144/215/84 145/216/84
f 146/219/87 118/152/87 145/216/87
f 67/259/40 146/219/40 147/221/40
f 12/34/14 147/260/89 148/222/91
f 13/261/15 148/222/91 149/226/15
f 73/85/43 149/262/43 150/227/43
f 82/95/47 150/227/48 151/230/93
f 63/74/38 151/230/93 152/232/94
f 54/65/37 152/232/94 153/234/37
f 45/56/32 153/234/32 154/236/32
f 36/46/27 154/236/27 155/238/27
f 27/47/22 155/238/22 156/240/22
f 2/25/18 156/263/18 157/242/18
f 3/264/11 157/242/11 158/246/11
f 5/265/12 158/247/12 159/249/12
f 121/252/53 89/104/53 160/250/53
f 2/25/11 3/264/11 4/26/11
f 3/28/12 5/265/12 6/29/12
f 8/31/13 9/108/13 10/32/13
f 12/34/14 13/261/15 14/35/15
f 21/37/17 22/253/17 23/38/17
f 1/27/18 26/266/18 27/40/18
f 30/41/19 31/119/19 32/42/19
f 24/21/1 33/53/1 34/44/20
f 26/45/22 35/55/22 36/46/22
f 26/10/2 28/9/95 37/48/23
f 39/50/24 40/255/24 41/51/24
f 33/53/1 42/62/1 43/54/25
f 35/55/27 44/64/27 45/56/27
f 35/49/2 37/48/96 46/57/28
f 48/59/29 49/257/29 50/60/29
f 42/62/1 51/71/1 52/63/30
f 44/64/32 53/73/32 54/65/32
f 44/58/2 46/57/97 55/66/33
f 57/68/34 58/141/34 59/69/34
f 51/71/1 60/103/1 61/72/35
f 53/73/37 62/102/38 63/74/38
f 53/67/2 55/66/98 64/75/39
f 66/77/40 67/259/40 68/78/40
f 70/80/1 71/267/1 72/81/41
f 74/83/43 14/268/43 13/84/43
f 74/86/2 75/93/99 11/87/44
f 77/89/45 78/153/45 79/90/45
f 80/92/2 81/101/52 75/93/46
f 80/94/47 74/83/48 73/85/48
f 84/96/1 70/80/1 69/82/49
f 86/98/51 87/147/51 88/99/51
f 62/76/2 64/75/39 81/101/52
f 62/102/38 80/94/47 82/95/47
f 60/103/1 84/96/1 83/97/50
f 89/104/53 8/269/53 7/105/53
f 95/107/54 94/270/54 10/32/54
f 93/109/55 21/37/55 20/39/55
f 100/111/56 28/271/56 23/112/56
f 100/114/57 30/272/57 29/115/57
f 34/44/20 101/273/100 102/117/58
f 103/118/59 37/122/59 32/42/59
f 37/48/23 28/9/95 29/120/60
f 103/118/62 39/50/62 38/52/62
f 43/54/25 104/274/101 105/123/63
f 106/124/64 46/275/64 41/125/64
f 46/57/28 37/48/96 38/127/65
f 106/129/67 48/59/67 47/61/67
f 52/63/30 107/276/102 108/131/68
f 109/132/69 55/277/69 50/133/69
f 55/66/33 46/57/97 47/135/70
f 109/137/72 57/68/72 56/70/72
f 61/72/35 110/278/103 111/139/73
f 112/140/74 64/144/74 59/69/74
f 64/75/39 55/66/98 56/142/75
f 112/140/77 86/98/77 85/100/77
f 83/97/50 113/279/104 114/145/78
f 115/146/79 81/150/79 88/99/79
f 81/101/52 64/75/39 85/148/80
f 115/146/82 77/89/82 76/91/82
f 69/82/49 116/280/105 117/151/83
f 118/152/84 75/156/84 79/90/84
f 75/93/46 81/101/52 76/154/85
f 118/152/87 66/77/87 65/79/87
f 72/81/41 119/281/88 120/157/88
f 12/34/14 11/36/16 68/158/89
f 11/87/44 75/93/99 65/160/90
f 97/162/13 96/166/13 122/163/13
f 123/165/54 122/163/54 96/166/54
f 124/168/55 16/282/55 99/169/55
f 125/170/17 99/169/17 98/171/17
f 127/173/56 126/254/56 98/174/56
f 127/176/57 25/283/57 102/177/57
f 128/179/19 102/284/19 101/180/19
f 130/182/59 129/181/59 101/180/59
f 130/182/62 34/183/62 105/184/62
f 131/185/24 105/184/24 104/186/24
f 133/188/64 132/256/64 104/189/64
f 133/191/67 43/285/67 108/192/67
f 134/193/29 108/192/29 107/194/29
f 136/196/69 135/258/69 107/197/69
f 136/199/72 52/286/72 111/200/72
f 137/201/34 111/200/34 110/202/34
f 139/204/74 138/203/74 110/202/74
f 139/204/77 61/205/77 114/206/77
f 140/207/51 114/206/51 113/208/51
f 142/210/79 141/209/79 113/208/79
f 142/210/82 83/211/82 117/212/82
f 143/213/45 117/212/45 116/214/45
f 145/216/84 144/215/84 116/214/84
f 145/216/87 69/217/87 120/218/87
f 146/219/40 120/218/40 119/220/40
f 148/222/91 147/260/89 119/223/89
f 148/222/91 72/224/92 71/225/15
f 150/227/43 149/262/43 71/228/43
f 151/230/93 150/227/48 70/229/48
f 152/232/94 151/230/93 84/231/47
f 153/234/37 152/232/94 60/233/38
f 154/236/32 153/234/32 51/235/32
f 155/238/27 154/236/27 42/237/27
f 156/240/22 155/238/22 33/239/22
f 157/242/18 156/263/18 24/243/18
f 157/242/11 15/244/11 18/245/11
f 158/247/12 18/287/12 17/248/12
f 160/250/53 92/288/53 97/251/53
f 9/108/13 8/31/13 121/164/13
f 95/107/54 9/108/54 122/163/54
f 125/170/55 21/37/55 93/109/55
f 22/253/17 21/37/17 125/170/17
f 100/111/56 22/113/56 126/254/56
f 128/178/57 30/272/57 100/114/57
f 31/119/19 30/41/19 128/179/19
f 103/118/59 31/119/59 129/181/59
f 131/185/62 39/50/62 103/118/62
f 40/255/24 39/50/24 131/185/24
f 106/124/64 40/126/64 132/256/64
f 134/193/67 48/59/67 106/129/67
f 49/257/29 48/59/29 134/193/29
f 109/132/69 49/134/69 135/258/69
f 137/201/72 57/68/72 109/137/72
f 57/68/34 137/201/34 138/203/34
f 112/140/74 58/141/74 138/203/74
f 112/140/77 139/204/77 140/207/77
f 86/98/51 140/207/51 141/209/51
f 115/146/79 87/147/79 141/209/79
f 115/146/82 142/210/82 143/213/82
f 78/153/45 77/89/45 143/213/45
f 118/152/84 78/153/84 144/215/84
f 146/219/87 66/77/87 118/152/87
f 67/259/40 66/77/40 146/219/40
f 12/34/14 67/159/89 147/260/89
f 13/261/15 12/34/14 148/222/91
f 73/85/43 13/84/43 149/262/43
f 82/95/47 73/85/48 150/227/48
f 63/74/38 82/95/47 151/230/93
f 54/65/37 63/74/38 152/232/94
f 45/56/32 54/65/32 153/234/32
f 36/46/27 45/56/27 154/236/27
f 27/47/22 36/46/22 155/238/22
f 2/25/18 27/40/18 156/263/18
f 3/264/11 2/25/11 157/242/11
f 5/265/12 3/28/12 158/247/12
f 121/252/53 8/269/53 89/104/53
usemtl lambert11SG_NONE
s off
f 5/289/106 90/290/106 6/291/106
f 16/292/106 92/293/106 17/294/106
f 19/295/106 95/296/106 93/297/106
f 6/298/106 94/299/106 19/300/106
f 124/301/106 91/302/106 16/303/106
f 159/304/106 92/293/106 160/305/106
f 93/306/106 123/307/106 124/308/106
f 89/309/106 159/310/106 160/305/106
f 5/289/106 89/311/106 90/290/106
f 16/292/106 91/312/106 92/293/106
f 19/295/106 94/313/106 95/296/106
f 6/298/106 90/314/106 94/299/106
f 124/301/106 123/315/106 91/302/106
f 159/304/106 17/316/106 92/293/106
f 93/306/106 95/317/106 123/307/106
f 89/309/106 5/318/106 159/310/106
