# This file uses centimeters as units for non-parametric coordinates.

mtllib cabeca.mtl
g default
v 0.907294 0.326402 -0.879130
v 0.027277 0.326402 -1.243645
v -0.852740 0.326402 -0.879130
v -1.217254 0.326402 0.000886
v -0.819731 0.326402 0.724963
v 0.027277 0.326402 1.510839
v 0.874285 0.326402 0.724963
v 1.271808 0.326402 0.000886
v 1.268368 4.632420 -1.240205
v 0.027277 4.632420 -1.754281
v -1.213814 4.632420 -1.240205
v -1.727891 4.632420 0.000886
v -1.213814 4.632420 1.241977
v 0.027277 4.632420 1.756054
v 1.268368 4.632420 1.241977
v 1.782445 4.632420 0.000886
v 0.027277 0.326402 0.000886
v 0.027277 5.041276 -1.271036
v -0.872108 5.041276 -0.898498
v -1.244645 5.041276 0.000886
v -0.872108 5.041276 0.900271
v 0.027277 5.041276 1.272809
v 0.926662 5.041276 0.900271
v 1.299199 5.041276 0.000886
v 0.926662 5.041276 -0.898498
v 0.027277 5.292735 -0.734429
v 0.027277 5.364682 -0.018643
v -0.492670 5.292735 -0.519060
v -0.708038 5.292735 0.000886
v -0.492670 5.292735 0.520833
v 0.027277 5.292735 0.736202
v 0.547224 5.292735 0.520833
v 0.762592 5.292735 0.000886
v 0.547224 5.292735 -0.519060
v 2.043886 3.241695 0.000886
v 1.327654 4.379206 1.390545
v 0.027277 3.334643 2.100295
v -1.273100 4.379206 1.390545
v -1.989332 3.241695 0.000886
v -1.386609 3.884214 -1.412999
v 0.027277 3.884214 -1.998649
v 1.441162 3.884214 -1.412999
v -1.626604 1.760881 0.024025
v -1.448874 2.909872 -1.475264
v 0.027277 2.909872 -2.086706
v 1.503428 2.909872 -1.475264
v 1.681158 1.760881 0.024025
v 0.460503 0.326402 -1.064197
v 0.824916 2.879324 -1.886534
v 0.752473 3.863546 -1.797947
v 0.638258 4.632420 -1.501205
v 0.470038 5.041276 -1.087638
v 0.283243 5.292735 -0.628404
v 0.311152 5.364682 -0.038172
v 0.309282 5.292735 0.617158
v 0.470038 5.041276 1.089411
v 0.638258 4.632420 1.502978
v 0.679210 4.150475 1.793389
v 0.460503 0.326402 1.153926
v -0.405949 0.326402 -1.064197
v -0.770362 2.879324 -1.886534
v -0.697919 3.863546 -1.797947
v -0.583704 4.632420 -1.501205
v -0.415484 5.041276 -1.087638
v -0.228689 5.292735 -0.628404
v -0.256598 5.364682 -0.038172
v -0.254728 5.292735 0.617158
v -0.415484 5.041276 1.089411
v -0.583704 4.632420 1.502978
v -0.624656 4.150475 1.793389
v -0.405949 0.326402 1.153926
v -1.035049 0.326402 0.440769
v -1.495834 1.985852 0.507811
v -1.825771 3.744442 0.573774
v -1.470926 4.632421 0.621254
v -1.058430 5.041276 0.450450
v -0.593875 5.292735 0.312863
v -0.249168 5.364682 0.321951
v 0.027277 5.364682 0.342400
v 0.303722 5.364682 0.321951
v 0.648429 5.292735 0.312863
v 1.112984 5.041276 0.450450
v 1.525480 4.632420 0.621254
v 1.880325 3.744442 0.573774
v 1.550388 1.985852 0.507811
v 1.089603 0.326402 0.440769
v -0.384471 0.326402 1.313118
v 0.024295 0.326402 1.638995
v 0.018423 2.689958 2.102423
v -0.600649 2.597948 1.717494
v 0.433062 0.326402 1.313118
v 0.823482 0.326402 0.921455
v 1.145717 2.386017 1.283909
v 0.649507 2.597948 1.717494
v 1.340251 4.131878 1.419558
v 0.695154 3.946750 1.826210
v 0.024295 3.115508 2.137244
v -0.646563 3.946750 1.826210
v -1.096859 2.386017 1.283909
v -1.291660 4.131878 1.419558
v -0.774891 0.326402 0.921455
v -0.978052 0.326402 0.661973
v -1.401185 2.114904 0.774385
v -1.698502 3.515855 0.794116
v 1.450043 2.114904 0.774385
v 1.747093 3.515855 0.794116
v 1.026643 0.326402 0.661973
vt 0.939107 0.970482
vt 0.894961 0.970482
vt 0.930967 0.697512
vt 0.998008 0.694246
vt 0.852156 0.694246
vt 0.852156 0.970482
vt 0.809351 0.970482
vt 0.773345 0.697512
vt 0.060893 0.001937
vt 0.147844 0.001937
vt 0.150130 0.155318
vt 0.001992 0.278173
vt 0.191307 0.001937
vt 0.197931 0.179373
vt 0.277500 0.001937
vt 0.309698 0.001937
vt 0.355488 0.254659
vt 0.317455 0.244821
vt 0.448069 0.001937
vt 0.486768 0.001937
vt 0.450955 0.222160
vt 0.408115 0.244821
vt 0.534262 0.001937
vt 0.577725 0.001937
vt 0.575439 0.155318
vt 0.527638 0.179373
vt 0.664676 0.001937
vt 0.723577 0.278173
vt 0.319720 0.510064
vt 0.362526 0.527794
vt 0.406671 0.546080
vt 0.319720 0.633030
vt 0.232770 0.546080
vt 0.276915 0.527794
vt 0.196754 0.633030
vt 0.236031 0.704573
vt 0.214756 0.676493
vt 0.319720 0.782222
vt 0.276915 0.746957
vt 0.403409 0.704573
vt 0.362526 0.746957
vt 0.442687 0.633030
vt 0.424684 0.676493
vt 0.574495 0.685414
vt 0.574495 0.756138
vt 0.549205 0.745662
vt 0.546447 0.687343
vt 0.547181 0.651761
vt 0.574495 0.649741
vt 0.602544 0.687343
vt 0.601810 0.651761
vt 0.635869 0.652659
vt 0.647149 0.683484
vt 0.625869 0.734858
vt 0.599786 0.745662
vt 0.574495 0.856905
vt 0.514127 0.831899
vt 0.530748 0.791037
vt 0.574495 0.809157
vt 0.025217 0.462356
vt 0.147844 0.462356
vt 0.147844 0.506072
vt 0.058980 0.506072
vt 0.209140 0.462356
vt 0.192264 0.506072
vt 0.514127 0.535069
vt 0.574495 0.510064
vt 0.574495 0.557811
vt 0.530748 0.575932
vt 0.634864 0.535069
vt 0.697122 0.560857
vt 0.663360 0.594620
vt 0.618243 0.575932
vt 0.516429 0.462356
vt 0.577725 0.462356
vt 0.577725 0.506072
vt 0.533306 0.506072
vt 0.700352 0.462356
vt 0.666590 0.506072
vt 0.697122 0.806111
vt 0.634864 0.831899
vt 0.618243 0.791037
vt 0.663360 0.772349
vt 0.485631 0.772349
vt 0.448822 0.683484
vt 0.501842 0.683484
vt 0.523122 0.734858
vt 0.467221 0.639065
vt 0.513122 0.652659
vt 0.574495 0.610831
vt 0.546632 0.622593
vt 0.625869 0.632111
vt 0.602359 0.622593
vt 0.681769 0.639065
vt 0.700169 0.683484
vt 0.521121 0.367409
vt 0.577725 0.313653
vt 0.139087 0.575378
vt 0.163543 0.511308
vt 0.190618 0.517166
vt 0.190618 0.579425
vt 0.139087 0.704208
vt 0.051854 0.639793
vt 0.190618 0.639793
vt 0.190618 0.700161
vt 0.147844 0.313653
vt 0.204449 0.367409
vt 0.008144 0.382354
vt 0.852156 0.590065
vt 0.780502 0.592275
vt 0.791788 0.510064
vt 0.852156 0.510064
vt 0.991856 0.590065
vt 0.923809 0.592275
vt 0.912524 0.510064
vt 0.974783 0.510064
vt 0.717425 0.382354
vt 0.437553 0.408835
vt 0.397373 0.389041
vt 0.358928 0.300161
vt 0.328196 0.389041
vt 0.370082 0.254659
vt 0.366641 0.300161
vt 0.415871 0.001937
vt 0.765205 0.970482
vt 0.706304 0.694246
vt 0.712456 0.590065
vt 0.729529 0.510064
vt 0.451869 0.806111
vt 0.485631 0.594620
vt 0.523122 0.632111
vt 0.451869 0.560857
vt 0.163543 0.768278
vt 0.190618 0.762420
vt 0.274614 0.222160
vt 0.288017 0.408835
vt 0.238802 0.001937
vt 0.213163 0.001937
vt 0.224270 0.193172
vt 0.226220 0.342967
vt 0.285150 0.435281
vt 0.270471 0.462356
vt 0.236708 0.506072
vt 0.455098 0.462356
vt 0.488861 0.506072
vt 0.440419 0.435281
vt 0.501299 0.193172
vt 0.499350 0.342967
vt 0.512406 0.001937
vt 0.319426 0.794885
vt 0.279037 0.762686
vt 0.398390 0.723988
vt 0.359814 0.762686
vt 0.117303 0.573803
vt 0.137098 0.510064
vt 0.117303 0.706372
vt 0.028423 0.640088
vt 0.137098 0.770112
vt 0.240462 0.723988
vt 0.220388 0.698350
vt 0.418463 0.698350
vn 0.451077 -0.314966 -0.835060
vn 0.451077 -0.314966 -0.835060
vn 0.429519 -0.126001 -0.894224
vn 0.475862 -0.181310 -0.860629
vn -0.272664 -0.314192 -0.909361
vn -0.272664 -0.314192 -0.909361
vn -0.272664 -0.314192 -0.909361
vn -0.272664 -0.314192 -0.909361
vn -0.900758 -0.273525 -0.337371
vn -0.900758 -0.273525 -0.337371
vn -0.913044 -0.234142 -0.333958
vn -0.931847 -0.159280 -0.326022
vn -0.892903 -0.261797 0.366315
vn -0.892903 -0.261797 0.366315
vn -0.898546 -0.218883 0.380402
vn -0.896660 -0.234933 0.375242
vn -0.593930 -0.194858 0.780563
vn -0.548686 -0.179174 0.816603
vn -0.534707 -0.142972 0.832855
vn -0.576638 -0.152915 0.802562
vn 0.591695 -0.194361 0.782381
vn 0.638623 -0.210476 0.740176
vn 0.621680 -0.174660 0.763549
vn 0.574787 -0.152993 0.803874
vn 0.892903 -0.261797 0.366315
vn 0.892903 -0.261797 0.366315
vn 0.896660 -0.234933 0.375242
vn 0.898546 -0.218883 0.380402
vn 0.900758 -0.273525 -0.337371
vn 0.900758 -0.273525 -0.337371
vn 0.931847 -0.159280 -0.326022
vn 0.913044 -0.234142 -0.333958
vn 0.000000 -1.000000 -0.000000
vn 0.000000 -1.000000 -0.000000
vn 0.000000 -1.000000 0.000000
vn -0.000000 -1.000000 0.000000
vn 0.000000 -1.000000 0.000000
vn 0.000000 -1.000000 -0.000000
vn -0.000000 -1.000000 0.000000
vn -0.000000 -1.000000 -0.000000
vn -0.000000 -1.000000 -0.000000
vn 0.000000 -1.000000 0.000000
vn 0.000000 -1.000000 0.000000
vn 0.000000 -1.000000 0.000000
vn 0.000000 -1.000000 0.000000
vn 0.000000 -1.000000 0.000000
vn 0.000000 -1.000000 0.000000
vn 0.000000 0.997700 -0.067791
vn 0.000000 0.993944 -0.109886
vn -0.055879 0.993169 -0.102432
vn -0.083109 0.994978 -0.055788
vn -0.096608 0.991421 0.088045
vn 0.000000 0.994360 0.106058
vn 0.083109 0.994978 -0.055788
vn 0.096608 0.991421 0.088045
vn 0.170877 0.983236 0.063626
vn 0.145340 0.988798 -0.033982
vn 0.118114 0.988916 -0.089971
vn 0.055879 0.993169 -0.102432
vn -0.258451 0.737483 -0.623957
vn -0.258451 0.737483 -0.623957
vn -0.258451 0.737483 -0.623957
vn -0.258451 0.737483 -0.623957
vn -0.623957 0.737483 -0.258451
vn -0.623957 0.737483 -0.258451
vn -0.623957 0.737483 -0.258451
vn -0.623957 0.737483 -0.258451
vn -0.623956 0.737483 0.258451
vn -0.623956 0.737483 0.258451
vn -0.623956 0.737483 0.258451
vn -0.623956 0.737483 0.258451
vn -0.258451 0.737483 0.623957
vn -0.258451 0.737483 0.623957
vn -0.258451 0.737483 0.623957
vn -0.258451 0.737483 0.623957
vn 0.258451 0.737483 0.623957
vn 0.258451 0.737483 0.623957
vn 0.258451 0.737483 0.623957
vn 0.258451 0.737483 0.623957
vn 0.623957 0.737483 0.258451
vn 0.623956 0.737483 0.258451
vn 0.623956 0.737483 0.258451
vn 0.623957 0.737483 0.258451
vn 0.623956 0.737483 -0.258451
vn 0.623956 0.737483 -0.258451
vn 0.623957 0.737483 -0.258451
vn 0.623956 0.737483 -0.258451
vn 0.258451 0.737483 -0.623957
vn 0.258451 0.737483 -0.623957
vn 0.258451 0.737483 -0.623957
vn 0.258451 0.737483 -0.623957
vn -0.173110 0.891837 -0.417923
vn -0.173110 0.891837 -0.417923
vn -0.173110 0.891837 -0.417923
vn -0.173110 0.891837 -0.417923
vn -0.417923 0.891837 -0.173109
vn -0.417923 0.891837 -0.173109
vn -0.417923 0.891837 -0.173109
vn -0.417923 0.891837 -0.173109
vn -0.424104 0.890030 0.167282
vn -0.421536 0.889944 0.174088
vn -0.421185 0.889929 0.175012
vn -0.424104 0.890030 0.167282
vn -0.172941 0.892114 0.417401
vn -0.174007 0.892101 0.416986
vn -0.174007 0.892101 0.416986
vn -0.172859 0.892115 0.417433
vn 0.172941 0.892114 0.417401
vn 0.171742 0.892128 0.417867
vn 0.171742 0.892128 0.417867
vn 0.172859 0.892115 0.417433
vn 0.421536 0.889944 0.174088
vn 0.424104 0.890030 0.167282
vn 0.424104 0.890030 0.167282
vn 0.421185 0.889929 0.175012
vn 0.417923 0.891837 -0.173109
vn 0.417923 0.891837 -0.173109
vn 0.417923 0.891837 -0.173109
vn 0.417923 0.891837 -0.173109
vn 0.173109 0.891837 -0.417924
vn 0.173110 0.891837 -0.417923
vn 0.173110 0.891837 -0.417923
vn 0.173109 0.891837 -0.417924
vn 0.945608 0.140890 0.293217
vn 0.927346 -0.103697 0.359549
vn 0.941413 0.249891 0.226487
vn 0.913541 0.295719 0.279274
vn 0.217447 0.368474 0.903850
vn 0.319542 0.517538 0.793755
vn 0.319542 0.517538 0.793755
vn 0.241439 0.403705 0.882457
vn -0.217447 0.368474 0.903850
vn -0.193685 0.333475 0.922648
vn -0.193685 0.333475 0.922648
vn -0.241439 0.403705 0.882457
vn -0.927347 -0.103697 0.359549
vn -0.945608 0.140890 0.293216
vn -0.913541 0.295719 0.279274
vn -0.941413 0.249890 0.226486
vn -0.940211 0.074041 -0.332447
vn -0.944564 -0.007319 -0.328245
vn -0.917928 0.213375 -0.334483
vn -0.917928 0.213375 -0.334483
vn -0.279871 0.199651 -0.939048
vn -0.373423 0.200121 -0.905818
vn -0.360130 0.340356 -0.868599
vn -0.307111 0.340142 -0.888812
vn 0.464033 0.203686 -0.862082
vn 0.373423 0.200121 -0.905818
vn 0.360130 0.340356 -0.868599
vn 0.409440 0.339545 -0.846799
vn 0.944564 -0.007319 -0.328245
vn 0.940211 0.074041 -0.332447
vn 0.917928 0.213375 -0.334483
vn 0.917928 0.213375 -0.334483
vn 0.587680 -0.108917 0.801729
vn 0.572958 -0.104366 0.812912
vn -0.508755 -0.080817 0.857110
vn -0.573419 -0.103847 0.812654
vn -0.256413 0.096226 -0.961766
vn -0.429519 -0.126001 -0.894224
vn 0.256413 0.096226 -0.961766
vn 0.279871 0.199651 -0.939048
vn 0.307111 0.340142 -0.888812
vn 0.258451 0.737483 -0.623957
vn 0.258451 0.737483 -0.623957
vn 0.173110 0.891837 -0.417923
vn 0.173110 0.891837 -0.417923
vn 0.174007 0.892101 0.416986
vn 0.174007 0.892101 0.416987
vn 0.258451 0.737483 0.623957
vn 0.258451 0.737483 0.623957
vn 0.193685 0.333475 0.922648
vn 0.193685 0.333475 0.922648
vn 0.531295 -0.143919 0.834873
vn 0.506487 -0.084125 0.858134
vn 0.544496 -0.178189 0.819618
vn -0.451077 -0.314966 -0.835060
vn -0.451077 -0.314966 -0.835060
vn -0.475862 -0.181310 -0.860629
vn -0.464033 0.203686 -0.862082
vn -0.409440 0.339545 -0.846799
vn -0.258451 0.737483 -0.623957
vn -0.258451 0.737483 -0.623957
vn -0.173110 0.891837 -0.417923
vn -0.173110 0.891837 -0.417923
vn -0.118114 0.988916 -0.089971
vn -0.145340 0.988798 -0.033981
vn -0.170877 0.983236 0.063627
vn -0.171742 0.892128 0.417866
vn -0.171742 0.892128 0.417866
vn -0.258451 0.737483 0.623957
vn -0.258451 0.737483 0.623957
vn -0.319542 0.517538 0.793755
vn -0.319542 0.517538 0.793755
vn -0.621688 -0.174644 0.763547
vn -0.587672 -0.109018 0.801721
vn -0.638644 -0.210400 0.740179
vn -0.775615 -0.223048 0.590484
vn -0.775615 -0.223048 0.590484
vn -0.778954 -0.173450 0.602615
vn -0.777895 -0.192848 0.598071
vn -0.779765 -0.151934 0.607358
vn -0.779765 -0.151934 0.607357
vn -0.874276 0.347310 0.339142
vn -0.874276 0.347310 0.339142
vn -0.623956 0.737483 0.258451
vn -0.623956 0.737483 0.258451
vn -0.418209 0.889766 0.182803
vn -0.418209 0.889766 0.182803
vn -0.082574 0.977783 0.192668
vn -0.150682 0.974213 0.167939
vn 0.000000 0.978963 0.204036
vn 0.082574 0.977784 0.192668
vn 0.150682 0.974213 0.167940
vn 0.418209 0.889766 0.182803
vn 0.418209 0.889766 0.182803
vn 0.623957 0.737483 0.258451
vn 0.623957 0.737483 0.258451
vn 0.874276 0.347310 0.339141
vn 0.874276 0.347310 0.339142
vn 0.778992 -0.173397 0.602582
vn 0.777904 -0.192857 0.598056
vn 0.779832 -0.151809 0.607302
vn 0.779832 -0.151809 0.607302
vn 0.775577 -0.223149 0.590495
vn 0.775577 -0.223149 0.590495
vn 0.272664 -0.314192 -0.909361
vn 0.272664 -0.314192 -0.909361
vn 0.272664 -0.314192 -0.909361
vn 0.272664 -0.314192 -0.909361
vn -0.000003 -1.000000 0.000001
vn -0.000003 -1.000000 0.000001
vn -0.000003 -1.000000 0.000001
vn -0.000003 -1.000000 0.000001
vn 0.000004 -1.000000 0.000004
vn 0.000004 -1.000000 0.000004
vn 0.000004 -1.000000 0.000004
vn 0.000004 -1.000000 0.000004
vn 0.489947 0.148754 0.858967
vn 0.489947 0.148754 0.858967
vn 0.489947 0.148754 0.858967
vn 0.489947 0.148754 0.858967
vn -0.233379 0.171655 0.957115
vn -0.233379 0.171655 0.957115
vn -0.233379 0.171655 0.957115
vn -0.233379 0.171655 0.957115
vn 0.241080 0.165182 0.956345
vn 0.241080 0.165182 0.956345
vn 0.241080 0.165182 0.956345
vn 0.241080 0.165182 0.956345
vn 0.000003 -1.000000 0.000003
vn 0.000003 -1.000000 0.000003
vn 0.000003 -1.000000 0.000003
vn 0.000003 -1.000000 0.000003
vn -0.485925 0.161350 0.858978
vn -0.485925 0.161350 0.858978
vn -0.485925 0.161350 0.858978
vn -0.485925 0.161350 0.858978
vn -0.000003 -1.000000 0.000004
vn -0.000003 -1.000000 0.000004
vn -0.000003 -1.000000 0.000004
vn -0.000003 -1.000000 0.000004
vn -0.000003 -1.000000 0.000003
vn -0.000003 -1.000000 0.000003
vn -0.000003 -1.000000 0.000003
vn -0.000003 -1.000000 0.000003
vn -0.903941 -0.249801 0.347117
vn -0.903941 -0.249801 0.347117
vn -0.903941 -0.249801 0.347117
vn -0.903941 -0.249801 0.347117
vn -0.907419 -0.190309 0.374663
vn -0.907419 -0.190309 0.374663
vn -0.907419 -0.190309 0.374663
vn -0.907419 -0.190309 0.374663
vn -0.857730 0.070867 0.509192
vn -0.857730 0.070867 0.509192
vn -0.857730 0.070867 0.509192
vn -0.857730 0.070867 0.509192
vn 0.899863 -0.189230 0.392987
vn 0.899863 -0.189230 0.392987
vn 0.899863 -0.189230 0.392987
vn 0.899863 -0.189230 0.392987
vn 0.852907 0.055773 0.519075
vn 0.852907 0.055773 0.519075
vn 0.852907 0.055773 0.519075
vn 0.852907 0.055773 0.519075
vn 0.000005 -1.000000 0.000004
vn 0.000005 -1.000000 0.000004
vn 0.000005 -1.000000 0.000004
vn 0.000005 -1.000000 0.000004
vn 0.896658 -0.248990 0.366071
vn 0.896658 -0.248990 0.366071
vn 0.896658 -0.248990 0.366071
vn 0.896658 -0.248990 0.366071
s 1
g cabeca
usemtl lambert8SG
f 1/1/1 48/2/2 49/3/3 46/4/4
s off
f 45/5/5 2/6/6 60/7/7 61/8/8
s 2
f 3/9/9 4/10/10 43/11/11 44/12/12
s 3
f 4/10/13 72/13/14 73/14/15 43/11/16
s 4
f 87/15/17 88/16/18 89/17/19 90/18/20
s 5
f 91/19/21 92/20/22 93/21/23 94/22/24
s 6
f 86/23/25 8/24/26 47/25/27 85/26/28
s 7
f 8/24/29 1/27/30 46/28/31 47/25/32
s 8
f 2/29/33 48/30/34 1/31/35 17/32/36
f 3/33/37 60/34/38 2/29/33 17/32/36
f 4/35/39 3/33/37 17/32/36
f 5/36/40 72/37/41 4/35/39 17/32/36
f 6/38/42 71/39/43 5/36/40 17/32/36
f 7/40/44 59/41/45 6/38/42 17/32/36
f 8/42/46 86/43/47 7/40/44 17/32/36
f 1/31/35 8/42/46 17/32/36
s 9
f 27/44/48 26/45/49 65/46/50 66/47/51
f 27/44/48 66/47/51 78/48/52 79/49/53
f 54/50/54 80/51/55 81/52/56 33/53/57
f 54/50/54 33/53/57 34/54/58 53/55/59
s 10
f 10/56/60 63/57/61 64/58/62 18/59/63
s off
f 11/60/64 12/61/65 20/62/66 19/63/67
s 11
f 12/61/68 75/64/69 76/65/70 20/62/71
s 12
f 69/66/72 14/67/73 22/68/74 68/69/75
s 13
f 57/70/76 15/71/77 23/72/78 56/73/79
s 14
f 83/74/80 16/75/81 24/76/82 82/77/83
s off
f 16/75/84 9/78/85 25/79/86 24/76/87
s 15
f 9/80/88 51/81/89 52/82/90 25/83/91
s 16
f 18/59/92 64/58/93 65/46/94 26/45/95
s off
f 19/84/96 20/85/97 29/86/98 28/87/99
s 17
f 20/85/100 76/88/101 77/89/102 29/86/103
s 18
f 68/69/104 22/68/105 31/90/106 67/91/107
s 19
f 56/73/108 23/72/109 32/92/110 55/93/111
s 20
f 82/94/112 24/95/113 33/53/114 81/52/115
s off
f 24/95/116 25/83/117 34/54/118 33/53/119
s 21
f 25/83/120 52/82/121 53/55/122 34/54/123
s 6
f 84/96/124 35/97/125 16/75/126 83/74/127
s 22
f 58/98/128 36/99/129 15/100/130 57/101/131
s 23
f 70/102/132 37/103/133 14/104/134 69/105/135
s 3
f 39/106/136 74/107/137 75/64/138 12/61/139
s 2
f 40/108/140 39/106/141 12/61/142 11/60/143
s 24
f 41/109/144 62/110/145 63/111/146 10/112/147
s 1
f 42/113/148 50/114/149 51/115/150 9/116/151
s 7
f 35/97/152 42/117/153 9/78/154 16/75/155
s 5
f 94/22/24 93/21/23 95/118/156 96/119/157
s 4
f 90/18/20 89/17/19 97/120/158 98/121/159
s 3
f 43/11/16 73/14/15 74/107/137 39/106/136
s 2
f 44/12/12 43/11/11 39/106/141 40/108/140
s 24
f 45/5/160 61/8/161 62/110/145 41/109/144
s 1
f 46/4/4 49/3/3 50/114/149 42/113/148
s 7
f 47/25/32 46/28/31 42/117/153 35/97/152
s 6
f 85/26/28 47/25/27 35/97/125 84/96/124
s 1
f 50/114/149 49/3/3 45/5/162 41/109/163
f 51/115/150 50/114/149 41/109/163 10/112/164
s 15
f 52/82/90 51/81/89 10/56/165 18/59/166
s 21
f 53/55/122 52/82/121 18/59/167 26/45/168
s 9
f 27/44/48 54/50/54 53/55/59 26/45/49
f 27/44/48 79/49/53 80/51/55 54/50/54
s 19
f 22/68/169 56/73/108 55/93/111 31/90/170
s 13
f 14/67/171 57/70/76 56/73/79 22/68/172
s 22
f 37/103/173 58/98/128 57/101/131 14/104/174
s 5
f 89/122/175 94/22/24 96/119/157 97/123/176
f 88/124/177 91/19/21 94/22/24 89/122/175
s 24
f 60/7/178 3/125/179 44/126/180 61/8/161
f 62/110/145 61/8/161 44/126/180 40/127/181
f 63/111/146 62/110/145 40/127/181 11/128/182
s 10
f 64/58/62 63/57/61 11/129/183 19/84/184
s 16
f 65/46/94 64/58/93 19/84/185 28/87/186
s 9
f 66/47/51 65/46/50 28/87/187 29/86/188
f 78/48/52 66/47/51 29/86/188 77/89/189
s 18
f 21/130/190 68/69/104 67/91/107 30/131/191
s 12
f 13/132/192 69/66/72 68/69/75 21/130/193
s 23
f 38/133/194 70/102/132 69/105/135 13/134/195
s 4
f 99/135/196 90/18/20 98/121/159 100/136/197
f 101/137/198 87/15/17 90/18/20 99/135/196
s 25
f 102/138/199 101/137/200 99/135/201 103/139/202
f 104/140/203 103/139/202 99/135/201 100/136/204
s 3
f 75/64/138 74/107/137 38/141/205 13/142/206
s 11
f 76/65/70 75/64/69 13/142/207 21/143/208
s 17
f 77/89/102 76/88/101 21/130/209 30/131/210
s 9
f 67/91/211 78/48/52 77/89/189 30/131/212
f 79/49/53 78/48/52 67/91/211 31/90/213
f 80/51/55 79/49/53 31/90/213 55/93/214
f 81/52/56 80/51/55 55/93/214 32/92/215
s 20
f 23/72/216 82/94/112 81/52/115 32/92/217
s 14
f 15/144/218 83/74/80 82/77/83 23/145/219
s 6
f 36/146/220 84/96/124 83/74/127 15/144/221
s 26
f 93/21/222 105/147/223 106/148/224 95/118/225
f 92/20/226 107/149/227 105/147/223 93/21/222
s off
f 49/3/228 48/2/229 2/6/230 45/5/231
f 71/39/232 6/38/233 88/150/234 87/151/235
f 59/41/236 7/40/237 92/152/238 91/153/239
f 36/99/240 58/98/241 96/154/242 95/155/243
f 37/103/244 70/102/245 98/156/246 97/157/247
f 58/98/248 37/103/249 97/157/250 96/154/251
f 6/38/252 59/41/253 91/153/254 88/150/255
f 70/102/256 38/133/257 100/158/258 98/156/259
f 5/36/260 71/39/261 87/151/262 101/159/263
f 72/37/264 5/36/265 101/159/266 102/160/267
f 73/14/268 72/13/269 102/138/270 103/139/271
f 74/107/272 73/14/273 103/139/274 104/140/275
f 38/141/276 74/107/277 104/140/278 100/136/279
f 85/26/280 84/96/281 106/148/282 105/147/283
f 84/96/284 36/146/285 95/118/286 106/148/287
f 7/40/288 86/43/289 107/161/290 92/152/291
f 86/23/292 85/26/293 105/147/294 107/149/295
